<svg width="236" height="66" viewBox="0 0 236 66" fill="none" xmlns="http://www.w3.org/2000/svg">
<path d="M92.4586 24.6316H96.2398V26.1441C96.968 25.3823 97.5898 24.8669 98.1052 24.598C98.6542 24.3179 99.3432 24.1779 100.172 24.1779C102.021 24.1779 103.483 24.9845 104.558 26.5978C105.746 24.9845 107.354 24.1779 109.382 24.1779C113.068 24.1779 114.911 26.413 114.911 30.8832V41H111.113V31.9083C111.113 30.3398 110.922 29.2307 110.541 28.5809C110.149 27.9199 109.505 27.5894 108.609 27.5894C107.567 27.5894 106.805 27.9815 106.323 28.7657C105.852 29.55 105.617 30.8104 105.617 32.5469V41H101.819V31.9587C101.819 29.0458 100.979 27.5894 99.2984 27.5894C98.234 27.5894 97.4554 27.9871 96.9624 28.7825C96.4807 29.578 96.2398 30.8328 96.2398 32.5469V41H92.4586V24.6316ZM123.506 37.9582L116.146 24.6316H120.532L125.54 34.0426L130.212 24.6316H134.48L121.439 49.9068H117.12L123.506 37.9582ZM144.924 15.0526V31.8411C144.924 33.8465 144.784 35.3422 144.504 36.3281C144.224 37.4485 143.748 38.3952 143.076 39.1682C141.765 40.7031 140.028 41.4705 137.866 41.4705C136.23 41.4705 134.701 41.0448 133.278 40.1933L135.194 36.8491C136.146 37.4877 137.037 37.807 137.866 37.807C139.031 37.807 139.838 37.3644 140.286 36.4794C140.757 35.5943 140.992 34.0482 140.992 31.8411V15.0526H144.924ZM148.882 32.6982C148.882 30.3342 149.728 28.3232 151.42 26.6651C153.111 25.0069 155.173 24.1779 157.604 24.1779C160.046 24.1779 162.119 25.0125 163.822 26.6819C165.502 28.3512 166.343 30.4014 166.343 32.8326C166.343 35.2862 165.497 37.342 163.805 39.0002C162.102 40.6471 160.013 41.4705 157.537 41.4705C155.083 41.4705 153.027 40.6303 151.369 38.9498C149.711 37.2916 148.882 35.2078 148.882 32.6982ZM152.747 32.7654C152.747 34.4011 153.184 35.6951 154.058 36.6474C154.954 37.6109 156.136 38.0927 157.604 38.0927C159.083 38.0927 160.265 37.6165 161.15 36.6642C162.035 35.7119 162.477 34.4403 162.477 32.8494C162.477 31.2585 162.035 29.9869 161.15 29.0346C160.254 28.0711 159.072 27.5894 157.604 27.5894C156.159 27.5894 154.988 28.0711 154.092 29.0346C153.195 29.9981 152.747 31.2417 152.747 32.7654ZM173.375 12.6158V26.5306C174.888 24.9621 176.602 24.1779 178.518 24.1779C180.725 24.1779 182.562 25.0013 184.03 26.6483C185.498 28.284 186.232 30.323 186.232 32.7654C186.232 35.2862 185.492 37.3701 184.013 39.017C182.546 40.6527 180.691 41.4705 178.451 41.4705C176.557 41.4705 174.866 40.7423 173.375 39.2859V41H169.594V12.6158H173.375ZM182.366 32.9334C182.366 31.365 181.941 30.0877 181.089 29.1018C180.226 28.0935 179.145 27.5894 177.846 27.5894C176.456 27.5894 175.325 28.0767 174.451 29.0514C173.588 30.0149 173.157 31.2697 173.157 32.8158C173.157 34.4067 173.583 35.6783 174.434 36.6306C175.286 37.6053 176.406 38.0927 177.795 38.0927C179.106 38.0927 180.193 37.6053 181.056 36.6306C181.929 35.6447 182.366 34.4123 182.366 32.9334ZM198.978 27.4213L195.852 29.085C195.359 28.0767 194.749 27.5726 194.021 27.5726C193.673 27.5726 193.376 27.6902 193.13 27.9255C192.883 28.1495 192.76 28.4408 192.76 28.7993C192.76 29.4267 193.488 30.0485 194.945 30.6647C196.95 31.5274 198.3 32.3229 198.995 33.0511C199.69 33.7793 200.037 34.7596 200.037 35.992C200.037 37.5717 199.454 38.8937 198.289 39.9581C197.158 40.9664 195.791 41.4705 194.189 41.4705C191.444 41.4705 189.5 40.1317 188.357 37.4541L191.584 35.9584C192.032 36.7427 192.374 37.2412 192.609 37.4541C193.068 37.8798 193.617 38.0927 194.256 38.0927C195.533 38.0927 196.172 37.5101 196.172 36.3449C196.172 35.6727 195.679 35.0453 194.693 34.4627C194.312 34.2723 193.931 34.0874 193.55 33.9082C193.169 33.7289 192.783 33.544 192.391 33.3536C191.293 32.8158 190.52 32.278 190.071 31.7403C189.5 31.0569 189.214 30.1774 189.214 29.1018C189.214 27.679 189.702 26.5026 190.676 25.5727C191.673 24.6428 192.883 24.1779 194.306 24.1779C196.401 24.1779 197.959 25.259 198.978 27.4213Z" fill="#00717D"/>
<path fill-rule="evenodd" clip-rule="evenodd" d="M42.7376 6.89088C39.6896 9.7126 37.8724 12.7478 35.8726 18.3567C35.1421 20.4063 34.8 20.7621 33.2898 21.0452C32.3326 21.2247 28.9843 20.9959 25.8499 20.5359C19.8613 19.658 16.1414 19.8283 13.6964 21.0925C12.486 21.7183 12.2207 21.7152 11.6849 21.0701C11.0327 20.2843 10.1665 20.4993 10.1665 21.4468C10.1665 21.7564 10.3195 21.8565 10.5066 21.6695C10.9585 21.2176 12.7082 22.8295 12.7082 23.6982C12.7082 24.4226 13.3309 24.6066 13.89 24.0474C14.074 23.8634 13.9917 23.4328 13.7075 23.0902C12.9771 22.2103 17.0167 21.6613 19.7327 22.2713C28.0098 24.1313 32.6305 33.0565 30.4833 43.038C29.6924 46.7147 29.4306 46.9775 27.2732 46.2659C22.8178 44.7953 17.7797 38.03 17.0096 32.4836C16.7112 30.3339 17.2546 25.8276 18.0629 23.7465C18.3455 23.0196 18.1285 22.8569 16.879 22.8569C14.8757 22.8569 13.8682 25.1591 15.1009 26.9195C15.812 27.9346 15.7952 28.1522 14.9113 29.3843C14.1147 30.4945 14.0039 31.2199 14.2906 33.4433C15.4038 42.0732 23.623 49.7977 32.5842 50.6344C39.0273 51.2363 46.1306 48.2509 50.0702 43.2866C52.0633 40.7749 53.3743 39.9916 53.3743 41.3132C53.3743 41.9771 70.7143 49.7992 72.1824 49.7982C73.0059 49.7972 75.3716 44.687 74.8048 44.1329C74.6208 43.9525 70.4276 42.0823 65.4867 39.9763C59.8062 37.5552 56.1127 36.2503 55.4396 36.4262C54.4032 36.6971 54.3843 36.5929 54.7071 32.3891C55.3542 23.9757 51.8707 17.1118 44.6433 12.5567C43.285 11.7007 43.2825 11.7022 42.9277 13.3177C42.6755 14.4639 42.7691 15.0012 43.2484 15.1608C44.8334 15.689 48.8949 20.1541 50.1912 22.7934C51.4086 25.2725 51.5952 26.2607 51.5952 30.2276C51.5952 34.1951 51.4101 35.1737 50.2023 37.5984C49.4368 39.1361 48.1477 41.1384 47.3384 42.0478L45.8668 43.7014L45.5054 40.8064C45.3061 39.2144 44.4837 35.6103 43.6775 32.7972C41.5084 25.2318 41.1607 21.9028 41.9756 16.5028C42.825 10.8746 43.3115 9.19208 44.9239 6.30682C45.6183 5.06497 46.1012 4.04883 45.997 4.04883C45.8927 4.04883 44.4257 5.32778 42.7376 6.89088ZM28.1318 9.89357C23.9493 11.6524 25.1083 18.9545 29.7778 20.2639C31.9499 20.8734 34.2231 19.8288 35.0456 17.8433C36.9157 13.3288 32.3758 8.10934 28.1318 9.89357ZM33.5663 9.95253C33.5928 10.6535 35.2352 12.4499 36.1801 12.8114C36.7556 13.032 37.3036 12.7214 37.8724 11.8532C38.3355 11.1466 38.6206 10.4751 38.5063 10.3612C38.0493 9.90424 33.5506 9.53215 33.5663 9.95253ZM22.5697 13.6196C21.4793 14.4106 19.7983 15.9549 18.834 17.0508L17.0808 19.0445L18.7344 19.2056C20.9222 19.4191 24.509 16.3341 24.9553 13.856C25.121 12.9354 25.0981 12.1821 24.9044 12.1821C24.7108 12.1821 23.6601 12.8292 22.5697 13.6196ZM5.58397 20.4424C5.57889 21.1683 5.43351 21.3624 5.18646 20.9736C4.91298 20.543 4.08237 20.9715 2.39879 22.4106C1.07918 23.5386 0 24.6889 0 24.967C0 25.8479 7.80434 34.0401 8.64359 34.0401C9.08532 34.0401 10.4334 33.0341 11.6402 31.805L13.8336 29.5699L12.2181 29.2151C11.3291 29.0199 10.7211 28.7408 10.8665 28.5954C11.0124 28.45 11.871 28.5888 12.7758 28.904C14.0512 29.3488 14.5112 29.3335 14.8269 28.8359C15.4852 27.7989 15.4226 27.7003 11.3845 23.4074C7.43377 19.2076 5.59871 18.2698 5.58397 20.4424ZM5.93878 23.4608C5.77662 23.8659 5.65615 23.7455 5.63175 23.1533C5.60989 22.6175 5.72986 22.3176 5.89862 22.4863C6.06739 22.6551 6.08569 23.0938 5.93878 23.4608ZM9.03347 27.655C9.79647 28.0693 10.1172 28.417 9.74615 28.4282C8.87081 28.4546 6.09382 25.6776 6.12025 24.8023C6.13144 24.4312 6.47913 24.752 6.89342 25.515C7.3077 26.278 8.27048 27.2407 9.03347 27.655ZM39.6108 45.541C39.6444 46.9252 39.4451 47.1702 38.061 47.4472C34.4559 48.168 34.4244 48.1035 36.4424 44.0826L38.2902 40.4008L38.9312 42.1764C39.2835 43.1534 39.5895 44.6672 39.6108 45.541Z" fill="#00717D"/>
<path d="M161.951 54.208C161.866 53.8773 161.749 53.5733 161.599 53.296C161.45 53.0187 161.258 52.7787 161.023 52.576C160.789 52.3733 160.511 52.2187 160.191 52.112C159.882 51.9947 159.519 51.936 159.103 51.936C158.495 51.936 157.967 52.0587 157.519 52.304C157.082 52.5493 156.725 52.88 156.447 53.296C156.17 53.7013 155.962 54.1653 155.823 54.688C155.695 55.2107 155.631 55.744 155.631 56.288C155.631 56.832 155.695 57.3653 155.823 57.888C155.962 58.4107 156.17 58.88 156.447 59.296C156.725 59.7013 157.082 60.0267 157.519 60.272C157.967 60.5173 158.495 60.64 159.103 60.64C159.551 60.64 159.946 60.5653 160.287 60.416C160.629 60.256 160.922 60.0427 161.167 59.776C161.413 59.4987 161.605 59.1787 161.743 58.816C161.882 58.4533 161.973 58.064 162.015 57.648H163.967C163.925 58.3307 163.775 58.9547 163.519 59.52C163.274 60.0853 162.938 60.576 162.511 60.992C162.085 61.3973 161.583 61.712 161.007 61.936C160.431 62.16 159.797 62.272 159.103 62.272C158.25 62.272 157.482 62.1173 156.799 61.808C156.127 61.488 155.557 61.056 155.087 60.512C154.618 59.968 154.255 59.3333 153.999 58.608C153.754 57.8827 153.631 57.1093 153.631 56.288C153.631 55.4773 153.754 54.7093 153.999 53.984C154.255 53.2587 154.618 52.624 155.087 52.08C155.557 51.536 156.127 51.104 156.799 50.784C157.482 50.464 158.25 50.304 159.103 50.304C159.743 50.304 160.346 50.3947 160.911 50.576C161.477 50.7467 161.973 51.0027 162.399 51.344C162.837 51.6747 163.189 52.08 163.455 52.56C163.722 53.04 163.887 53.5893 163.951 54.208H161.951ZM169.322 62.224C168.661 62.224 168.069 62.1173 167.546 61.904C167.034 61.68 166.597 61.376 166.234 60.992C165.882 60.608 165.61 60.1493 165.418 59.616C165.237 59.0827 165.146 58.496 165.146 57.856C165.146 57.2267 165.237 56.6453 165.418 56.112C165.61 55.5787 165.882 55.12 166.234 54.736C166.597 54.352 167.034 54.0533 167.546 53.84C168.069 53.616 168.661 53.504 169.322 53.504C169.984 53.504 170.57 53.616 171.082 53.84C171.605 54.0533 172.042 54.352 172.394 54.736C172.757 55.12 173.029 55.5787 173.21 56.112C173.402 56.6453 173.498 57.2267 173.498 57.856C173.498 58.496 173.402 59.0827 173.21 59.616C173.029 60.1493 172.757 60.608 172.394 60.992C172.042 61.376 171.605 61.68 171.082 61.904C170.57 62.1173 169.984 62.224 169.322 62.224ZM169.322 60.784C169.728 60.784 170.08 60.6987 170.378 60.528C170.677 60.3573 170.922 60.1333 171.114 59.856C171.306 59.5787 171.445 59.2693 171.53 58.928C171.626 58.576 171.674 58.2187 171.674 57.856C171.674 57.504 171.626 57.152 171.53 56.8C171.445 56.448 171.306 56.1387 171.114 55.872C170.922 55.5947 170.677 55.3707 170.378 55.2C170.08 55.0293 169.728 54.944 169.322 54.944C168.917 54.944 168.565 55.0293 168.266 55.2C167.968 55.3707 167.722 55.5947 167.53 55.872C167.338 56.1387 167.194 56.448 167.098 56.8C167.013 57.152 166.97 57.504 166.97 57.856C166.97 58.2187 167.013 58.576 167.098 58.928C167.194 59.2693 167.338 59.5787 167.53 59.856C167.722 60.1333 167.968 60.3573 168.266 60.528C168.565 60.6987 168.917 60.784 169.322 60.784ZM175.015 53.728H176.743V54.944L176.775 54.976C177.052 54.5173 177.415 54.16 177.863 53.904C178.311 53.6373 178.807 53.504 179.351 53.504C180.257 53.504 180.972 53.7387 181.495 54.208C182.017 54.6773 182.279 55.3813 182.279 56.32V62H180.455V56.8C180.433 56.1493 180.295 55.68 180.039 55.392C179.783 55.0933 179.383 54.944 178.839 54.944C178.529 54.944 178.252 55.0027 178.007 55.12C177.761 55.2267 177.553 55.3813 177.383 55.584C177.212 55.776 177.079 56.0053 176.983 56.272C176.887 56.5387 176.839 56.8213 176.839 57.12V62H175.015V53.728ZM183.37 53.728H184.746V51.248H186.57V53.728H188.218V55.088H186.57V59.504C186.57 59.696 186.576 59.8613 186.586 60C186.608 60.1387 186.645 60.256 186.698 60.352C186.762 60.448 186.853 60.5227 186.97 60.576C187.088 60.6187 187.248 60.64 187.45 60.64C187.578 60.64 187.706 60.64 187.834 60.64C187.962 60.6293 188.09 60.608 188.218 60.576V61.984C188.016 62.0053 187.818 62.0267 187.626 62.048C187.434 62.0693 187.237 62.08 187.034 62.08C186.554 62.08 186.165 62.0373 185.866 61.952C185.578 61.856 185.349 61.7227 185.178 61.552C185.018 61.3707 184.906 61.1467 184.842 60.88C184.789 60.6133 184.757 60.3093 184.746 59.968V55.088H183.37V53.728ZM196.458 60.16C196.458 60.384 196.485 60.544 196.538 60.64C196.602 60.736 196.72 60.784 196.89 60.784C196.944 60.784 197.008 60.784 197.082 60.784C197.157 60.784 197.242 60.7733 197.338 60.752V62.016C197.274 62.0373 197.189 62.0587 197.082 62.08C196.986 62.112 196.885 62.1387 196.778 62.16C196.672 62.1813 196.565 62.1973 196.458 62.208C196.352 62.2187 196.261 62.224 196.186 62.224C195.813 62.224 195.504 62.1493 195.258 62C195.013 61.8507 194.853 61.5893 194.778 61.216C194.416 61.568 193.968 61.824 193.434 61.984C192.912 62.144 192.405 62.224 191.914 62.224C191.541 62.224 191.184 62.1707 190.842 62.064C190.501 61.968 190.197 61.824 189.93 61.632C189.674 61.4293 189.466 61.1787 189.306 60.88C189.157 60.5707 189.082 60.2133 189.082 59.808C189.082 59.296 189.173 58.88 189.354 58.56C189.546 58.24 189.792 57.9893 190.09 57.808C190.4 57.6267 190.741 57.4987 191.114 57.424C191.498 57.3387 191.882 57.2747 192.266 57.232C192.597 57.168 192.912 57.1253 193.21 57.104C193.509 57.072 193.77 57.024 193.994 56.96C194.229 56.896 194.41 56.8 194.538 56.672C194.677 56.5333 194.746 56.3307 194.746 56.064C194.746 55.8293 194.688 55.6373 194.57 55.488C194.464 55.3387 194.325 55.2267 194.154 55.152C193.994 55.0667 193.813 55.0133 193.61 54.992C193.408 54.96 193.216 54.944 193.034 54.944C192.522 54.944 192.101 55.0507 191.77 55.264C191.44 55.4773 191.253 55.808 191.21 56.256H189.386C189.418 55.7227 189.546 55.28 189.77 54.928C189.994 54.576 190.277 54.2933 190.618 54.08C190.97 53.8667 191.365 53.7173 191.802 53.632C192.24 53.5467 192.688 53.504 193.146 53.504C193.552 53.504 193.952 53.5467 194.346 53.632C194.741 53.7173 195.093 53.856 195.402 54.048C195.722 54.24 195.978 54.4907 196.17 54.8C196.362 55.0987 196.458 55.4667 196.458 55.904V60.16ZM194.634 57.856C194.357 58.0373 194.016 58.1493 193.61 58.192C193.205 58.224 192.8 58.2773 192.394 58.352C192.202 58.384 192.016 58.432 191.834 58.496C191.653 58.5493 191.493 58.6293 191.354 58.736C191.216 58.832 191.104 58.9653 191.018 59.136C190.944 59.296 190.906 59.4933 190.906 59.728C190.906 59.9307 190.965 60.1013 191.082 60.24C191.2 60.3787 191.338 60.4907 191.498 60.576C191.669 60.6507 191.85 60.704 192.042 60.736C192.245 60.768 192.426 60.784 192.586 60.784C192.789 60.784 193.008 60.7573 193.242 60.704C193.477 60.6507 193.696 60.56 193.898 60.432C194.112 60.304 194.288 60.144 194.426 59.952C194.565 59.7493 194.634 59.504 194.634 59.216V57.856ZM204.005 56.496C203.93 55.984 203.722 55.6 203.381 55.344C203.05 55.0773 202.629 54.944 202.117 54.944C201.882 54.944 201.632 54.9867 201.365 55.072C201.098 55.1467 200.853 55.296 200.629 55.52C200.405 55.7333 200.218 56.0373 200.069 56.432C199.92 56.816 199.845 57.3227 199.845 57.952C199.845 58.2933 199.882 58.6347 199.957 58.976C200.042 59.3173 200.17 59.6213 200.341 59.888C200.522 60.1547 200.752 60.3733 201.029 60.544C201.306 60.704 201.642 60.784 202.037 60.784C202.57 60.784 203.008 60.6187 203.349 60.288C203.701 59.9573 203.92 59.4933 204.005 58.896H205.829C205.658 59.9733 205.248 60.8 204.597 61.376C203.957 61.9413 203.104 62.224 202.037 62.224C201.386 62.224 200.81 62.1173 200.309 61.904C199.818 61.68 199.402 61.3813 199.061 61.008C198.72 60.624 198.458 60.1707 198.277 59.648C198.106 59.1253 198.021 58.56 198.021 57.952C198.021 57.3333 198.106 56.752 198.277 56.208C198.448 55.664 198.704 55.1947 199.045 54.8C199.386 54.3947 199.808 54.08 200.309 53.856C200.821 53.6213 201.418 53.504 202.101 53.504C202.581 53.504 203.034 53.568 203.461 53.696C203.898 53.8133 204.282 53.9947 204.613 54.24C204.954 54.4853 205.232 54.7947 205.445 55.168C205.658 55.5413 205.786 55.984 205.829 56.496H204.005ZM206.48 53.728H207.856V51.248H209.68V53.728H211.328V55.088H209.68V59.504C209.68 59.696 209.685 59.8613 209.696 60C209.717 60.1387 209.754 60.256 209.808 60.352C209.872 60.448 209.962 60.5227 210.08 60.576C210.197 60.6187 210.357 60.64 210.56 60.64C210.688 60.64 210.816 60.64 210.944 60.64C211.072 60.6293 211.2 60.608 211.328 60.576V61.984C211.125 62.0053 210.928 62.0267 210.736 62.048C210.544 62.0693 210.346 62.08 210.144 62.08C209.664 62.08 209.274 62.0373 208.976 61.952C208.688 61.856 208.458 61.7227 208.288 61.552C208.128 61.3707 208.016 61.1467 207.952 60.88C207.898 60.6133 207.866 60.3093 207.856 59.968V55.088H206.48V53.728ZM217.221 50.576H219.221V57.232C219.221 57.616 219.237 58.0053 219.269 58.4C219.311 58.7947 219.418 59.152 219.589 59.472C219.77 59.7813 220.037 60.0373 220.389 60.24C220.751 60.4427 221.258 60.544 221.909 60.544C222.559 60.544 223.061 60.4427 223.413 60.24C223.775 60.0373 224.042 59.7813 224.213 59.472C224.394 59.152 224.501 58.7947 224.533 58.4C224.575 58.0053 224.597 57.616 224.597 57.232V50.576H226.597V57.888C226.597 58.624 226.485 59.264 226.261 59.808C226.037 60.352 225.717 60.8107 225.301 61.184C224.895 61.5467 224.405 61.8187 223.829 62C223.253 62.1813 222.613 62.272 221.909 62.272C221.205 62.272 220.565 62.1813 219.989 62C219.413 61.8187 218.917 61.5467 218.501 61.184C218.095 60.8107 217.781 60.352 217.557 59.808C217.333 59.264 217.221 58.624 217.221 57.888V50.576ZM230.016 59.344C230.069 59.8773 230.272 60.2507 230.624 60.464C230.976 60.6773 231.397 60.784 231.888 60.784C232.058 60.784 232.25 60.7733 232.464 60.752C232.688 60.72 232.896 60.6667 233.088 60.592C233.28 60.5173 233.434 60.4107 233.552 60.272C233.68 60.1227 233.738 59.9307 233.728 59.696C233.717 59.4613 233.632 59.2693 233.472 59.12C233.312 58.9707 233.104 58.8533 232.848 58.768C232.602 58.672 232.32 58.592 232 58.528C231.68 58.464 231.354 58.3947 231.024 58.32C230.682 58.2453 230.352 58.1547 230.032 58.048C229.722 57.9413 229.44 57.7973 229.184 57.616C228.938 57.4347 228.741 57.2053 228.592 56.928C228.442 56.64 228.368 56.288 228.368 55.872C228.368 55.424 228.474 55.0507 228.688 54.752C228.912 54.4427 229.189 54.1973 229.52 54.016C229.861 53.824 230.234 53.6907 230.64 53.616C231.056 53.5413 231.45 53.504 231.824 53.504C232.25 53.504 232.656 53.552 233.04 53.648C233.434 53.7333 233.786 53.8773 234.096 54.08C234.416 54.2827 234.677 54.5493 234.88 54.88C235.093 55.2 235.226 55.5893 235.28 56.048H233.376C233.29 55.6107 233.088 55.3173 232.768 55.168C232.458 55.0187 232.101 54.944 231.696 54.944C231.568 54.944 231.413 54.9547 231.232 54.976C231.061 54.9973 230.896 55.04 230.736 55.104C230.586 55.1573 230.458 55.2427 230.352 55.36C230.245 55.4667 230.192 55.6107 230.192 55.792C230.192 56.016 230.266 56.1973 230.416 56.336C230.576 56.4747 230.778 56.592 231.024 56.688C231.28 56.7733 231.568 56.848 231.888 56.912C232.208 56.976 232.538 57.0453 232.88 57.12C233.21 57.1947 233.536 57.2853 233.856 57.392C234.176 57.4987 234.458 57.6427 234.704 57.824C234.96 58.0053 235.162 58.2347 235.312 58.512C235.472 58.7893 235.552 59.1307 235.552 59.536C235.552 60.0267 235.44 60.4427 235.216 60.784C234.992 61.1253 234.698 61.4027 234.336 61.616C233.984 61.8293 233.589 61.984 233.152 62.08C232.714 62.176 232.282 62.224 231.856 62.224C231.333 62.224 230.848 62.1653 230.4 62.048C229.962 61.9307 229.578 61.7547 229.248 61.52C228.928 61.2747 228.672 60.976 228.48 60.624C228.298 60.2613 228.202 59.8347 228.192 59.344H230.016Z" fill="#00717D"/>
</svg>
