<svg width="23" height="23" viewBox="0 0 23 23" fill="none" xmlns="http://www.w3.org/2000/svg">
<rect y="0.355469" width="22.4554" height="22.4554" rx="11.2277" fill="white"/>
<path fill-rule="evenodd" clip-rule="evenodd" d="M5.77663 8.03233C6.94382 6.20824 8.99453 5 11.3269 5C14.9531 5 17.9009 7.92233 17.9009 11.5374C17.9009 14.0247 16.5054 16.1841 14.4535 17.2893V17.8384C14.4535 18.1994 14.161 18.4921 13.8002 18.4921H12.4935C7.80266 18.4921 4 14.6872 4 9.99353V8.68606C4 8.32501 4.29251 8.03233 4.65334 8.03233H5.77663ZM6.78392 9.05621C7.66569 7.46871 9.36828 6.39093 11.3269 6.39093C14.1945 6.39093 16.5109 8.6996 16.5109 11.5374C16.5109 13.352 15.5636 14.9504 14.1307 15.867C14.0635 15.8275 13.9883 15.7996 13.9076 15.7861L11.0094 15.3028C10.7265 15.2556 10.4459 15.3986 10.3176 15.6553L9.81191 16.6673C7.99956 15.9376 6.55298 14.4901 5.82365 12.6767L6.83512 12.1707C7.09166 12.0423 7.23454 11.7616 7.18739 11.4785L6.78392 9.05621Z" fill="#00717D"/>
<path d="M8.12237 13.4597V13.0838L9.53418 11.5383C9.69987 11.3573 9.83632 11.2 9.94353 11.0663C10.0507 10.9312 10.1301 10.8045 10.1816 10.6862C10.2345 10.5664 10.261 10.4411 10.261 10.3103C10.261 10.1599 10.2248 10.0297 10.1524 9.91971C10.0814 9.80972 9.9839 9.72479 9.85999 9.66492C9.73607 9.60505 9.59684 9.57511 9.44229 9.57511C9.278 9.57511 9.13459 9.60923 9.01206 9.67745C8.89093 9.74428 8.79695 9.83826 8.73012 9.95939C8.66468 10.0805 8.63196 10.2225 8.63196 10.3854H8.13908C8.13908 10.1348 8.19686 9.91484 8.31242 9.72548C8.42798 9.53613 8.58532 9.38854 8.78442 9.28273C8.98491 9.17691 9.20977 9.124 9.459 9.124C9.70962 9.124 9.93169 9.17691 10.1252 9.28273C10.3188 9.38854 10.4705 9.53126 10.5805 9.71087C10.6905 9.89048 10.7455 10.0903 10.7455 10.3103C10.7455 10.4676 10.717 10.6214 10.6599 10.7718C10.6042 10.9208 10.5067 11.0872 10.3675 11.271C10.2296 11.4534 10.0382 11.6761 9.79315 11.9393L8.83245 12.9668V13.0002H10.8207V13.4597H8.12237Z" fill="#00717D"/>
<path d="M11.4911 12.5825V12.1565L13.3707 9.18248H13.6798V9.84244H13.471L12.0508 12.0896V12.1231H14.582V12.5825H11.4911ZM13.5044 13.4597V9.18248H13.9973V13.4597H13.5044Z" fill="#00717D"/>
</svg>
