<svg width="23" height="23" viewBox="0 0 23 23" fill="none" xmlns="http://www.w3.org/2000/svg">
<rect y="0.253906" width="22.4554" height="22.4554" rx="11.2277" fill="white"/>
<path d="M5.72741 6C5.32567 6 5 6.32914 5 6.73515V8.20544C5 13.4836 9.23373 17.7623 14.4563 17.7623H15.9111C16.3128 17.7623 16.6385 17.4332 16.6385 17.0272V15.4445C16.6385 15.0851 16.3814 14.7785 16.0307 14.7194L12.804 14.1759C12.489 14.1228 12.1766 14.2836 12.0338 14.5722L11.4707 15.7104C9.45296 14.8897 7.84239 13.262 7.03038 11.2227L8.15651 10.6537C8.44213 10.5094 8.60121 10.1936 8.54872 9.8753L8.01093 6.61429C7.95248 6.25981 7.64901 6 7.29342 6H5.72741Z" fill="#00717D"/>
<path d="M11.1907 6.62566C10.5069 6.62566 9.95256 7.08403 9.95256 7.64946V9.69706C9.95256 10.2625 10.5069 10.7209 11.1907 10.7209H12.4288V12.2566L14.2861 10.7209H15.5242C16.208 10.7209 16.7623 10.2625 16.7623 9.69706V7.64946C16.7623 7.08403 16.208 6.62566 15.5242 6.62566H11.1907Z" fill="#00717D"/>
</svg>
